# xmcd
#
# Track frame offsets:
#	150
#	14868
#	35648
#	57437
#	72278
#	90844
#	108221
#	126867
#	146959
#	163693
#	185292
#	208180
#	226765
#	247410
#	264671
#
# Disc length: 3768 seconds
#
# Revision: 1
# Processed by: cddbd v1.5.1PL0 Copyright (c) Steve Scherf et al.
# Submitted via: audiograbber 1.81.03
#
DISCID=e00eb60f
DTITLE=N.O.H. Mafia - Niggaz On High
DYEAR=1900
DGENRE=
TTITLE0=Grave Digger
TTITLE1=Trip Off Life(It's a Struggle)
TTITLE2=Get Up On It
TTITLE3=Up In Frisco
TTITLE4=N.O.H. Mafia F/Mack Reese
TTITLE5=Drivin' Me Wild
TTITLE6=Nuttin But Love 4 Mr. Cee F/Playaz On The Run
TTITLE7=The P.O.S.S.E. F/Alias
TTITLE8=Anotha Hoe Story
TTITLE9=It Won'T Stop
TTITLE10=Just Anotha Day F/Alias(Dre Mack)
TTITLE11=Now They Wanna Jock
TTITLE12=Live For Da Funk F/Hitman and Devious
TTITLE13=Roll To This
TTITLE14=Bonus Track
EXTD=
EXTT0=
EXTT1=
EXTT2=
EXTT3=
EXTT4=
EXTT5=
EXTT6=
EXTT7=
EXTT8=
EXTT9=
EXTT10=
EXTT11=
EXTT12=
EXTT13=
EXTT14=
PLAYORDER=
